<?xml version="1.0" encoding="UTF-8" standalone="no"?>
<!-- Generator: Adobe Illustrator 19.1.0, SVG Export Plug-In . SVG Version: 6.00 Build 0)  -->

<svg
   xmlns:dc="http://purl.org/dc/elements/1.1/"
   xmlns:cc="http://creativecommons.org/ns#"
   xmlns:rdf="http://www.w3.org/1999/02/22-rdf-syntax-ns#"
   xmlns:svg="http://www.w3.org/2000/svg"
   xmlns="http://www.w3.org/2000/svg"
   xmlns:sodipodi="http://sodipodi.sourceforge.net/DTD/sodipodi-0.dtd"
   xmlns:inkscape="http://www.inkscape.org/namespaces/inkscape"
   version="1.1"
   id="Layer_1"
   x="0px"
   y="0px"
   viewBox="0 0 66.85553 13.639239"
   enable-background="new 0 0 90.708664 22.677166"
   xml:space="preserve"
   inkscape:version="0.91 r13725"
   sodipodi:docname="globjects-logo.svg"
   width="100.53"
   height="20.0"><metadata
     id="metadata27"><rdf:RDF><cc:Work
         rdf:about=""><dc:format>image/svg+xml</dc:format><dc:type
           rdf:resource="http://purl.org/dc/dcmitype/StillImage" /><dc:title></dc:title></cc:Work></rdf:RDF></metadata><defs
     id="defs25" /><sodipodi:namedview
     pagecolor="#ffffff"
     bordercolor="#666666"
     borderopacity="1"
     objecttolerance="10"
     gridtolerance="10"
     guidetolerance="10"
     inkscape:pageopacity="0"
     inkscape:pageshadow="2"
     inkscape:window-width="1855"
     inkscape:window-height="1056"
     id="namedview23"
     showgrid="false"
     fit-margin-top="0"
     fit-margin-left="0"
     fit-margin-right="0"
     fit-margin-bottom="0"
     inkscape:zoom="3.285243"
     inkscape:cx="39.68392"
     inkscape:cy="6.71297"
     inkscape:window-x="65"
     inkscape:window-y="24"
     inkscape:window-maximized="1"
     inkscape:current-layer="Layer_1" /><polygon
     points="12.998943,12.874617 9.334697,6.52789 19.106123,6.52789 20.327551,4.412314 5.670412,4.412314 12.998981,17.105768 16.663229,10.759041 15.441837,8.643465 "
     id="polygon3"
     style="fill:#f29f05"
     transform="translate(-5.670412,-4.412314)" /><polygon
     points="23.991837,6.52789 22.770407,4.412314 15.441837,17.105898 25.213264,17.105898 23.991837,14.990322 19.106123,14.990322 "
     id="polygon5"
     style="fill:#f29f05"
     transform="translate(-5.670412,-4.412314)" /><g
     id="g7"
     transform="translate(-5.670412,-4.412314)"><path
       d="m 30.642153,7.568156 c 1.81885,0 3.459963,1.389648 3.459963,3.815429 0,2.40918 -1.641113,3.799805 -3.459963,3.799805 -1.803711,0 -3.444824,-1.390625 -3.444824,-3.799805 0,-2.425781 1.641113,-3.815429 3.444824,-3.815429 z m 0,6.224609 c 1.064453,0 1.715334,-0.960938 1.715334,-2.40918 0,-1.463867 -0.650881,-2.425781 -1.715334,-2.425781 -1.064453,0 -1.700195,0.961914 -1.700195,2.425781 -1e-6,1.448242 0.635742,2.40918 1.700195,2.40918 z"
       id="path9"
       inkscape:connector-curvature="0"
       style="fill:#f29f05" /><path
       d="m 35.787174,4.567179 1.700195,0 0,2.69043 -0.04443,1.21289 c 0.606445,-0.532226 1.360352,-0.902343 2.099609,-0.902343 1.818848,0 2.868652,1.449218 2.868652,3.68164 0,2.499023 -1.493652,3.933594 -3.105469,3.933594 -0.665039,0 -1.375,-0.325195 -1.980957,-0.916992 l -0.04443,0 -0.147949,0.739258 -1.345215,0 0,-10.438477 z m 3.164063,9.210937 c 0.960938,0 1.700195,-0.857422 1.700195,-2.498047 0,-1.449219 -0.473145,-2.306641 -1.567383,-2.306641 -0.532227,0 -1.034668,0.265625 -1.59668,0.8125 l 0,3.386719 c 0.517579,0.44336 1.035157,0.605469 1.463868,0.605469 z"
       id="path11"
       inkscape:connector-curvature="0"
       style="fill:#f29f05" /><path
       d="m 44.140202,7.74589 1.714844,0 0,7.629882 c 0,1.537109 -0.591309,2.675781 -2.306152,2.675781 -0.532715,0 -0.902344,-0.08887 -1.183105,-0.192383 l 0.325195,-1.271484 c 0.192383,0.05957 0.399414,0.118164 0.621094,0.118164 0.650391,0 0.828125,-0.458008 0.828125,-1.300781 l 0,-7.659179 z M 43.947819,5.513468 c 0,-0.577148 0.458496,-0.976563 1.049805,-0.976563 0.606445,0 1.064453,0.399414 1.064453,0.976563 0,0.561523 -0.458008,0.960938 -1.064453,0.960938 -0.591309,0 -1.049805,-0.399414 -1.049805,-0.960938 z"
       id="path13"
       inkscape:connector-curvature="0"
       style="fill:#f29f05" /><path
       d="m 50.881901,7.568156 c 1.966309,0 3.001465,1.419921 3.001465,3.445312 0,0.325195 -0.0293,0.621094 -0.07373,0.798828 l -4.613281,0 c 0.147949,1.31543 0.976074,2.054688 2.144043,2.054688 0.621094,0 1.15332,-0.192383 1.685547,-0.532227 l 0.57666,1.064453 c -0.694824,0.458984 -1.567383,0.78418 -2.483887,0.78418 -2.01123,0 -3.578125,-1.405273 -3.578125,-3.799805 -1e-6,-2.366211 1.641112,-3.815429 3.341308,-3.815429 z m 1.522949,3.164062 c 0,-1.15332 -0.487793,-1.847656 -1.478516,-1.847656 -0.857422,0 -1.59668,0.635742 -1.744629,1.847656 l 3.223145,0 z"
       id="path15"
       inkscape:connector-curvature="0"
       style="fill:#f29f05" /><path
       d="m 58.672916,7.568156 c 0.931152,0 1.641113,0.370117 2.128906,0.842773 l -0.812988,1.080078 c -0.384766,-0.34082 -0.769043,-0.533203 -1.227539,-0.533203 -1.167969,0 -1.980957,0.961914 -1.980957,2.425781 0,1.448242 0.79834,2.40918 1.937012,2.40918 0.591309,0 1.09375,-0.294922 1.493164,-0.620117 l 0.709473,1.079102 c -0.679688,0.606445 -1.552246,0.931641 -2.380371,0.931641 -1.981445,0 -3.503906,-1.390625 -3.503906,-3.799805 -1e-6,-2.425782 1.700195,-3.81543 3.637206,-3.81543 z"
       id="path17"
       inkscape:connector-curvature="0"
       style="fill:#f29f05" /><path
       d="m 62.590397,9.091593 -1.034668,0 0,-1.271484 1.123535,-0.074219 0.207031,-1.981445 1.41943,0 0,1.981445 1.848145,0 0,1.345703 -1.848145,0 0,3.459961 c 0,0.857422 0.325195,1.271484 1.02002,1.271484 0.251465,0 0.547363,-0.07422 0.754395,-0.163086 l 0.29541,1.256836 c -0.398926,0.132813 -0.901855,0.266602 -1.478516,0.266602 -1.685543,0 -2.306637,-1.064453 -2.306637,-2.631836 l 0,-3.459961 z"
       id="path19"
       inkscape:connector-curvature="0"
       style="fill:#f29f05" /><path
       d="m 67.750061,13.08378 c 0.650391,0.50293 1.271484,0.8125 2.010742,0.8125 0.783691,0 1.15332,-0.369141 1.15332,-0.87207 0,-0.606445 -0.783691,-0.87207 -1.552246,-1.167969 -0.961426,-0.354492 -2.040527,-0.902344 -2.040527,-2.114258 0,-1.271484 1.02002,-2.173828 2.646484,-2.173828 1.005371,0 1.818848,0.414063 2.410156,0.873046 l -0.783691,1.03418 c -0.50293,-0.369141 -1.02002,-0.621094 -1.59668,-0.621094 -0.724609,0 -1.064941,0.34082 -1.064941,0.798828 0,0.561523 0.724609,0.798828 1.508301,1.079102 0.990723,0.370117 2.084961,0.842773 2.084961,2.203125 0,1.242188 -0.990723,2.248047 -2.824219,2.248047 -0.990723,0 -2.040527,-0.428711 -2.75,-1.005859 l 0.79834,-1.09375 z"
       id="path21"
       inkscape:connector-curvature="0"
       style="fill:#f29f05" /></g></svg>